<?xml version="1.0" encoding="UTF-8" standalone="no"?>
<!DOCTYPE svg PUBLIC "-//W3C//DTD SVG 1.1//EN" "http://www.w3.org/Graphics/SVG/1.1/DTD/svg11.dtd">
<svg width="100%" height="100%" viewBox="0 0 160 145" version="1.1" xmlns="http://www.w3.org/2000/svg" xmlns:xlink="http://www.w3.org/1999/xlink" xml:space="preserve" xmlns:serif="http://www.serif.com/" style="fill-rule:evenodd;clip-rule:evenodd;stroke-linejoin:round;stroke-miterlimit:2;">
    <rect x="32" y="0" width="16" height="16" style="fill:rgb(91,204,46);"/>
    <rect x="48" y="0" width="16" height="16" style="fill:rgb(91,204,46);"/>
    <rect x="64" y="0" width="16" height="16" style="fill:rgb(91,204,46);"/>
    <rect x="80" y="0" width="16" height="16" style="fill:rgb(91,204,46);"/>
    <rect x="96" y="0" width="16" height="16" style="fill:rgb(91,204,46);"/>
    <rect x="112" y="0" width="16" height="16" style="fill:rgb(91,204,46);"/>
    <rect x="16" y="16" width="16" height="16" style="fill:rgb(91,204,46);"/>
    <rect x="32" y="16" width="16" height="16" style="fill:rgb(200,255,46);"/>
    <rect x="48" y="16" width="16" height="16" style="fill:rgb(200,255,46);"/>
    <rect x="64" y="16" width="16" height="16" style="fill:rgb(200,255,46);"/>
    <rect x="80" y="16" width="16" height="16" style="fill:rgb(200,255,46);"/>
    <rect x="96" y="16" width="16" height="16" style="fill:rgb(200,255,46);"/>
    <rect x="112" y="16" width="16" height="16" style="fill:rgb(200,255,46);"/>
    <rect x="128" y="16" width="16" height="16" style="fill:rgb(91,204,46);"/>
    <rect x="16" y="32" width="16" height="16" style="fill:rgb(200,255,46);"/>
    <rect x="32" y="32" width="16" height="16" style="fill:rgb(91,204,46);"/>
    <rect x="48" y="32" width="16" height="16" style="fill:rgb(91,204,46);"/>
    <rect x="64" y="32" width="16" height="16" style="fill:rgb(200,255,46);"/>
    <rect x="80" y="32" width="16" height="16" style="fill:rgb(200,255,46);"/>
    <rect x="96" y="32" width="16" height="16" style="fill:rgb(91,204,46);"/>
    <rect x="112" y="32" width="16" height="16" style="fill:rgb(91,204,46);"/>
    <rect x="128" y="32" width="16" height="16" style="fill:rgb(200,255,46);"/>
    <rect x="16" y="48" width="16" height="16" style="fill:rgb(200,255,46);"/>
    <rect x="32" y="48" width="16" height="16" style="fill:rgb(26,26,26);"/>
    <rect x="48" y="48" width="16" height="16" style="fill:rgb(255,60,60);"/>
    <rect x="64" y="48" width="16" height="16" style="fill:rgb(200,255,46);"/>
    <rect x="80" y="48" width="16" height="16" style="fill:rgb(200,255,46);"/>
    <rect x="96" y="48" width="16" height="16" style="fill:rgb(255,60,60);"/>
    <rect x="112" y="48" width="16" height="16" style="fill:rgb(26,26,26);"/>
    <rect x="128" y="48" width="16" height="16" style="fill:rgb(200,255,46);"/>
    <rect x="16" y="64" width="16" height="16" style="fill:rgb(200,255,46);"/>
    <rect x="32" y="64" width="16" height="16" style="fill:rgb(200,255,46);"/>
    <rect x="48" y="64" width="16" height="16" style="fill:rgb(200,255,46);"/>
    <rect x="64" y="64" width="16" height="16" style="fill:rgb(91,204,46);"/>
    <rect x="80" y="64" width="16" height="16" style="fill:rgb(91,204,46);"/>
    <rect x="96" y="64" width="16" height="16" style="fill:rgb(200,255,46);"/>
    <rect x="112" y="64" width="16" height="16" style="fill:rgb(200,255,46);"/>
    <rect x="128" y="64" width="16" height="16" style="fill:rgb(200,255,46);"/>
    <rect x="0" y="80" width="16" height="16" style="fill:rgb(200,255,46);"/>
    <rect x="16" y="80" width="16" height="16" style="fill:rgb(200,255,46);"/>
    <rect x="32" y="80" width="16" height="16" style="fill:rgb(240,237,230);"/>
    <rect x="48" y="80" width="16" height="16" style="fill:rgb(133,32,32);"/>
    <rect x="64" y="80" width="16" height="16" style="fill:rgb(133,32,32);"/>
    <rect x="80" y="80" width="16" height="16" style="fill:rgb(133,32,32);"/>
    <rect x="96" y="80" width="16" height="16" style="fill:rgb(133,32,32);"/>
    <rect x="112" y="80" width="16" height="16" style="fill:rgb(240,237,230);"/>
    <rect x="128" y="80" width="16" height="16" style="fill:rgb(200,255,46);"/>
    <rect x="144" y="80" width="16" height="16" style="fill:rgb(200,255,46);"/>
    <rect x="16" y="96" width="16" height="16" style="fill:rgb(200,255,46);"/>
    <rect x="32" y="96" width="16" height="16" style="fill:rgb(240,237,230);"/>
    <rect x="48" y="96" width="16" height="16" style="fill:rgb(200,255,46);"/>
    <rect x="64" y="96" width="16" height="16" style="fill:rgb(200,255,46);"/>
    <rect x="80" y="96" width="16" height="16" style="fill:rgb(200,255,46);"/>
    <rect x="96" y="96" width="16" height="16" style="fill:rgb(200,255,46);"/>
    <rect x="112" y="96" width="16" height="16" style="fill:rgb(240,237,230);"/>
    <rect x="128" y="96" width="16" height="16" style="fill:rgb(200,255,46);"/>
    <rect x="32" y="112" width="16" height="16" style="fill:rgb(200,255,46);"/>
    <rect x="48" y="112" width="16" height="16" style="fill:rgb(91,204,46);"/>
    <rect x="64" y="112" width="16" height="16" style="fill:rgb(91,204,46);"/>
    <rect x="80" y="112" width="16" height="16" style="fill:rgb(91,204,46);"/>
    <rect x="96" y="112" width="16" height="16" style="fill:rgb(91,204,46);"/>
    <rect x="112" y="112" width="16" height="16" style="fill:rgb(200,255,46);"/>
    <rect x="48" y="128" width="16" height="16" style="fill:rgb(200,255,46);"/>
    <rect x="64" y="128" width="16" height="16" style="fill:rgb(200,255,46);"/>
    <rect x="80" y="128" width="16" height="16" style="fill:rgb(200,255,46);"/>
    <rect x="96" y="128" width="16" height="16" style="fill:rgb(200,255,46);"/>
</svg>
